<svg width="50" height="56" viewBox="0 0 50 56" fill="none" xmlns="http://www.w3.org/2000/svg">
<g clip-path="url(#clip0_21_9)">
<path d="M32.5454 24.1746C31.3895 23.4509 30.272 22.7514 29.1551 22.0508C25.6881 19.8761 22.2215 17.7009 18.7555 15.5253C18.5548 15.3992 18.3849 15.3105 18.1308 15.4665C16.7449 16.3167 15.3449 17.1455 13.952 17.9841C13.9079 18.0108 13.8794 18.063 13.8097 18.141L43.4949 36.5525C41.0472 38.1835 38.618 39.6901 36.1793 41.3153C36.6237 41.7158 37.1384 41.9211 37.5951 42.2111C38.0629 42.5087 38.5468 42.7816 39.0238 43.0648C39.4846 43.3382 39.9466 43.6098 40.4071 43.8835C40.8841 44.1668 41.3606 44.451 41.8368 44.7361C42.3118 45.0194 42.7865 45.303 43.3193 45.6212C43.1185 45.7501 42.9685 45.8533 42.8123 45.946C37.2519 49.2442 31.693 52.5451 26.1357 55.8486C25.7649 56.0695 25.5041 56.0345 25.1538 55.8361C19.7785 52.7923 14.399 49.7558 9.01514 46.7267C6.11605 45.0934 3.21444 43.4639 0.310323 41.8383C0.210535 41.7823 0.117827 41.714 0 41.6368V13.63C0.787112 13.2079 1.57559 12.7828 2.36796 12.3608C3.5492 11.7307 4.73363 11.1063 5.91167 10.4708C6.10851 10.3647 6.26767 10.2847 6.48688 10.4403C7.28176 11.0036 8.08851 11.5505 8.88863 12.1064C8.91512 12.1247 8.92083 12.1724 8.94823 12.2335C8.10746 12.6815 7.26562 13.1301 6.42272 13.5791C5.37552 14.1359 4.32992 14.6956 3.27883 15.2451C3.07081 15.3539 2.93997 15.4808 2.96851 15.7298C2.9813 15.8429 2.97034 15.9575 2.97034 16.0717C2.97034 23.8088 2.9676 31.5457 2.96212 39.2826C2.96212 39.7249 3.07081 39.9787 3.49348 40.2143C8.12002 42.795 12.7292 45.4064 17.3448 48.0065C20.0936 49.5552 22.8454 51.0987 25.6377 52.668L37.4939 45.6359L33.3222 43.1514L25.6993 48.0754L5.69612 36.5703C7.64985 35.4289 9.58783 34.4169 11.4977 33.3574C13.4197 32.291 15.3515 31.2419 17.3041 30.1715C17.917 30.5334 18.5258 30.888 19.1309 31.2482C23.6179 33.9169 28.1046 36.5855 32.5908 39.2541C32.7224 39.3321 32.861 39.3995 32.9888 39.4827C33.1715 39.6012 33.3314 39.5935 33.5165 39.4721C34.9565 38.5324 36.4017 37.6002 37.9294 36.6115L8.02662 18.0648L15.5497 13.5311L8.53584 9.12519C8.83109 8.94698 9.04893 8.80134 9.27888 8.67831C11.9779 7.23575 14.678 5.79485 17.379 4.35561C20.0105 2.94916 22.6431 1.54497 25.2645 0.120197C25.5801 -0.0512277 25.8014 -0.032909 26.1003 0.136706C33.703 4.45067 41.309 8.75912 48.9183 13.0621C49.267 13.2595 49.6155 13.4574 49.9895 13.6693V14.3043C49.9895 23.2008 49.993 32.0973 50 40.9939C50 41.4722 49.863 41.7352 49.4291 41.9709C48.2525 42.6093 47.1043 43.3002 45.9612 43.9968C45.6251 44.2017 45.3675 44.2367 45.025 44.006C44.4226 43.601 43.7842 43.2491 43.1624 42.8723C43.0025 42.7755 42.8486 42.6688 42.5979 42.5051L46.9947 39.9183V39.3167C46.9947 31.5419 46.9983 23.7669 47.0055 15.9919C47.0055 15.5538 46.876 15.3214 46.4887 15.1038C41.9871 12.5754 37.4922 10.0349 33.0041 7.48241C30.7412 6.2008 28.4726 4.92913 26.2222 3.62423C25.782 3.3689 25.4458 3.38722 25.0143 3.62423C22.7657 4.85382 20.5021 6.05628 18.2438 7.26824C17.0641 7.90147 15.8844 8.53516 14.7044 9.16929C14.6434 9.20208 14.5877 9.24483 14.4715 9.32104C15.0504 9.6856 15.5787 10.0187 16.1074 10.3514C16.6899 10.718 17.2948 11.0525 17.8478 11.4596C18.2748 11.7748 18.603 11.728 19.0334 11.4632C21.0545 10.2211 23.0936 9.0094 25.1262 7.78681C25.2892 7.68889 25.4554 7.59594 25.6418 7.48829L43.7189 17.6521L32.5454 24.1746ZM17.237 33.5993C15.4331 34.6053 13.6211 35.5587 11.7756 36.6278C13.0238 37.3467 14.1799 38.013 15.3362 38.6785C18.6132 40.5644 21.8944 42.4435 25.162 44.3453C25.4981 44.5409 25.7231 44.533 26.0348 44.3247C27.2573 43.508 28.497 42.7167 29.7301 41.9155C29.9484 41.7737 30.164 41.6292 30.4524 41.4405L17.237 33.5993ZM21.2829 13.5745C21.4822 13.7116 21.6329 13.8233 21.7916 13.923C23.6032 15.0588 25.4155 16.1936 27.2286 17.3273C28.8624 18.3518 30.498 19.3736 32.1248 20.4089C32.4481 20.6147 32.7107 20.6538 33.061 20.4342C33.8846 19.9166 34.7396 19.4473 35.5799 18.9554C36.2686 18.5524 36.9548 18.1451 37.6962 17.7077C37.4939 17.5836 37.3548 17.4922 37.2103 17.4106C35.0478 16.1916 32.885 14.9735 30.7218 13.7561C29.1907 12.8947 27.6549 12.0419 26.1302 11.1694C25.8105 10.9871 25.5536 10.9503 25.2397 11.1803C24.9181 11.4164 24.5567 11.5995 24.2132 11.8065C23.2523 12.3868 22.2899 12.9675 21.2829 13.5745Z" fill="#FEFEFE"/>
</g>
<defs>
<clipPath id="clip0_21_9">
<rect width="50" height="56" fill="white"/>
</clipPath>
</defs>
</svg>
